<svg width="24" height="23" viewBox="0 0 24 23" fill="none" xmlns="http://www.w3.org/2000/svg">
<path d="M4.12042 22.1208H20.1282C22.5775 22.1208 23.7962 20.902 23.7962 18.488V4.17938C23.7962 1.76532 22.5775 0.54657 20.1282 0.54657H4.12042C1.6712 0.54657 0.440735 1.7536 0.440735 4.17938V18.488C0.440735 20.9138 1.6712 22.1208 4.12042 22.1208ZM3.94464 20.2341C2.90167 20.2341 2.32745 19.6833 2.32745 18.5934V7.54266C2.32745 6.46454 2.90167 5.90204 3.94464 5.90204H20.2806C21.3235 5.90204 21.9095 6.46454 21.9095 7.54266V18.5934C21.9095 19.6833 21.3235 20.2341 20.2806 20.2341H3.94464ZM9.83917 10.1091H10.5306C10.9407 10.1091 11.0696 9.99188 11.0696 9.58173V8.89032C11.0696 8.48016 10.9407 8.35126 10.5306 8.35126H9.83917C9.42902 8.35126 9.28839 8.48016 9.28839 8.89032V9.58173C9.28839 9.99188 9.42902 10.1091 9.83917 10.1091ZM13.7298 10.1091H14.4212C14.8314 10.1091 14.972 9.99188 14.972 9.58173V8.89032C14.972 8.48016 14.8314 8.35126 14.4212 8.35126H13.7298C13.3196 8.35126 13.179 8.48016 13.179 8.89032V9.58173C13.179 9.99188 13.3196 10.1091 13.7298 10.1091ZM17.6204 10.1091H18.3118C18.722 10.1091 18.8626 9.99188 18.8626 9.58173V8.89032C18.8626 8.48016 18.722 8.35126 18.3118 8.35126H17.6204C17.2103 8.35126 17.0814 8.48016 17.0814 8.89032V9.58173C17.0814 9.99188 17.2103 10.1091 17.6204 10.1091ZM5.94855 13.9411H6.62823C7.05011 13.9411 7.17902 13.8239 7.17902 13.4138V12.7224C7.17902 12.3122 7.05011 12.195 6.62823 12.195H5.94855C5.52667 12.195 5.39777 12.3122 5.39777 12.7224V13.4138C5.39777 13.8239 5.52667 13.9411 5.94855 13.9411ZM9.83917 13.9411H10.5306C10.9407 13.9411 11.0696 13.8239 11.0696 13.4138V12.7224C11.0696 12.3122 10.9407 12.195 10.5306 12.195H9.83917C9.42902 12.195 9.28839 12.3122 9.28839 12.7224V13.4138C9.28839 13.8239 9.42902 13.9411 9.83917 13.9411ZM13.7298 13.9411H14.4212C14.8314 13.9411 14.972 13.8239 14.972 13.4138V12.7224C14.972 12.3122 14.8314 12.195 14.4212 12.195H13.7298C13.3196 12.195 13.179 12.3122 13.179 12.7224V13.4138C13.179 13.8239 13.3196 13.9411 13.7298 13.9411ZM17.6204 13.9411H18.3118C18.722 13.9411 18.8626 13.8239 18.8626 13.4138V12.7224C18.8626 12.3122 18.722 12.195 18.3118 12.195H17.6204C17.2103 12.195 17.0814 12.3122 17.0814 12.7224V13.4138C17.0814 13.8239 17.2103 13.9411 17.6204 13.9411ZM5.94855 17.7849H6.62823C7.05011 17.7849 7.17902 17.6559 7.17902 17.2458V16.5544C7.17902 16.1442 7.05011 16.027 6.62823 16.027H5.94855C5.52667 16.027 5.39777 16.1442 5.39777 16.5544V17.2458C5.39777 17.6559 5.52667 17.7849 5.94855 17.7849ZM9.83917 17.7849H10.5306C10.9407 17.7849 11.0696 17.6559 11.0696 17.2458V16.5544C11.0696 16.1442 10.9407 16.027 10.5306 16.027H9.83917C9.42902 16.027 9.28839 16.1442 9.28839 16.5544V17.2458C9.28839 17.6559 9.42902 17.7849 9.83917 17.7849ZM13.7298 17.7849H14.4212C14.8314 17.7849 14.972 17.6559 14.972 17.2458V16.5544C14.972 16.1442 14.8314 16.027 14.4212 16.027H13.7298C13.3196 16.027 13.179 16.1442 13.179 16.5544V17.2458C13.179 17.6559 13.3196 17.7849 13.7298 17.7849Z" fill="black"/>
</svg>
