<svg width="29" height="23" viewBox="0 0 29 23" fill="none" xmlns="http://www.w3.org/2000/svg">
<path d="M4.31641 22.1091H24.5898C27.0508 22.1091 28.2695 20.902 28.2695 18.488V4.16766C28.2695 1.7536 27.0508 0.534851 24.5898 0.534851H4.31641C1.86719 0.534851 0.636719 1.7536 0.636719 4.16766V18.488C0.636719 20.902 1.86719 22.1091 4.31641 22.1091ZM4.33984 20.2224C3.16797 20.2224 2.52344 19.6013 2.52344 18.3825V4.27313C2.52344 3.05438 3.16797 2.42157 4.33984 2.42157H24.5664C25.7266 2.42157 26.3828 3.05438 26.3828 4.27313V18.3825C26.3828 19.6013 25.7266 20.2224 24.5664 20.2224H4.33984ZM6.19141 6.94501C6.80078 6.94501 7.28125 6.45282 7.28125 5.85516C7.28125 5.24579 6.80078 4.76532 6.19141 4.76532C5.60547 4.76532 5.10156 5.25751 5.10156 5.85516C5.10156 6.4411 5.60547 6.94501 6.19141 6.94501ZM9.73047 6.57001H23.1367C23.5586 6.57001 23.875 6.2536 23.875 5.85516C23.875 5.44501 23.5469 5.11688 23.1367 5.11688H9.73047C9.32031 5.11688 8.99219 5.44501 8.99219 5.85516C8.99219 6.2536 9.30859 6.57001 9.73047 6.57001ZM6.19141 10.5309C6.80078 10.5309 7.28125 10.0388 7.28125 9.4411C7.28125 8.83173 6.80078 8.35126 6.19141 8.35126C5.60547 8.35126 5.10156 8.84344 5.10156 9.4411C5.10156 10.027 5.60547 10.5309 6.19141 10.5309ZM9.73047 10.1677H17.1602C17.5586 10.1677 17.8867 9.83954 17.8867 9.4411C17.8867 9.04266 17.5586 8.70282 17.1602 8.70282H9.73047C9.32031 8.70282 8.99219 9.04266 8.99219 9.4411C8.99219 9.83954 9.32031 10.1677 9.73047 10.1677ZM6.19141 14.1052C6.80078 14.1052 7.28125 13.6247 7.28125 13.0153C7.28125 12.4177 6.80078 11.9372 6.19141 11.9372C5.59375 11.9372 5.10156 12.4294 5.10156 13.0153C5.10156 13.6247 5.59375 14.1052 6.19141 14.1052ZM9.73047 13.7536H23.1367C23.5586 13.7536 23.875 13.4372 23.875 13.0153C23.875 12.6169 23.5586 12.3005 23.1367 12.3005H9.73047C9.30859 12.3005 8.99219 12.6169 8.99219 13.0153C8.99219 13.4372 9.30859 13.7536 9.73047 13.7536ZM6.19141 17.8669C6.80078 17.8669 7.28125 17.3747 7.28125 16.777C7.28125 16.1677 6.80078 15.6755 6.19141 15.6755C5.60547 15.6755 5.10156 16.1794 5.10156 16.777C5.10156 17.363 5.60547 17.8669 6.19141 17.8669ZM9.73047 17.5036H17.1602C17.5586 17.5036 17.8867 17.1755 17.8867 16.777C17.8867 16.3669 17.5703 16.0505 17.1602 16.0505H9.73047C9.30859 16.0505 8.99219 16.3669 8.99219 16.777C8.99219 17.1755 9.32031 17.5036 9.73047 17.5036Z" fill="black"/>
</svg>
