<svg width="56" height="28" viewBox="0 0 56 28" fill="none" xmlns="http://www.w3.org/2000/svg">
<rect width="56" height="28" fill="#DFDFDF"/>
<circle opacity="0.7" cx="14.5183" cy="14.5183" r="10.3704" fill="white"/>
<path d="M36.3216 13.6913C36.3216 11.3505 34.608 9.7041 32.4016 9.7041C30.2064 9.7041 28.4816 11.3505 28.4816 13.6913C28.4816 16.0321 30.2064 17.6785 32.4016 17.6785C34.608 17.6785 36.3216 16.0321 36.3216 13.6913ZM29.5232 13.6913C29.5232 11.7761 30.7552 10.5889 32.4016 10.5889C34.048 10.5889 35.28 11.7761 35.28 13.6913C35.28 15.5953 34.048 16.7937 32.4016 16.7937C30.7552 16.7937 29.5232 15.5953 29.5232 13.6913ZM37.6671 17.6001H38.6863V14.0833H41.4415V13.2545H38.6863V10.6225H42.0799V9.7937H37.6671V17.6001ZM43.3108 17.6001H44.33V14.0833H47.0852V13.2545H44.33V10.6225H47.7236V9.7937H43.3108V17.6001Z" fill="white"/>
</svg>
