<svg width="25" height="25" viewBox="0 0 25 25" fill="none" xmlns="http://www.w3.org/2000/svg">
<path d="M12.8954 24.2692C19.4344 24.2692 24.8485 18.8434 24.8485 12.3161C24.8485 5.77704 19.4227 0.362976 12.8837 0.362976C6.35632 0.362976 0.942261 5.77704 0.942261 12.3161C0.942261 18.8434 6.36804 24.2692 12.8954 24.2692ZM12.8954 16.3005C9.36804 16.3005 6.66101 17.5661 5.4657 18.9724C3.89539 17.2028 2.94617 14.8825 2.94617 12.3161C2.94617 6.78485 7.35242 2.35516 12.8837 2.35516C18.4149 2.35516 22.8446 6.78485 22.8563 12.3161C22.868 14.8825 21.9071 17.2145 20.3251 18.9724C19.1415 17.5661 16.4227 16.3005 12.8954 16.3005ZM12.8954 14.3083C15.1571 14.3317 16.9149 12.4099 16.9149 9.89032C16.9149 7.52313 15.1454 5.5661 12.8954 5.5661C10.6454 5.5661 8.86414 7.52313 8.87585 9.89032C8.88757 12.4099 10.6454 14.2849 12.8954 14.3083Z" fill="black"/>
</svg>
